<?xml version="1.0" encoding="utf-8"?>
<!-- Generator: Adobe Illustrator 16.0.1, SVG Export Plug-In . SVG Version: 6.00 Build 0)  -->
<!DOCTYPE svg PUBLIC "-//W3C//DTD SVG 1.1//EN" "http://www.w3.org/Graphics/SVG/1.1/DTD/svg11.dtd">
<svg version="1.1" xmlns="http://www.w3.org/2000/svg" xmlns:xlink="http://www.w3.org/1999/xlink" x="0px" y="0px" width="159.4px"
	 height="159.4px" viewBox="0 0 159.4 159.4" style="enable-background:new 0 0 159.4 159.4;" xml:space="preserve">
<g id="BACK">
</g>
<g id="GUIDE">
</g>
<g id="LAYOUT">
	<g>
		<g>
			<g>
				<path style="fill:#2FACE3;" d="M159.4,79.7c0,44-35.7,79.7-79.7,79.7c-44,0-79.7-35.7-79.7-79.7C0,35.7,35.7,0,79.7,0
					C123.7,0,159.4,35.7,159.4,79.7z"/>
			</g>
			<g>
				<g>
					<path style="fill:#2897C7;" d="M159.4,79.7c0-44-35.7-79.7-79.7-79.7C56.5,0,35.6,9.9,21,25.8c14.2-13,33.1-21,53.9-21
						c44,0,79.7,35.7,79.7,79.7c0,20.8-8,39.7-21,53.9C149.4,123.8,159.4,102.9,159.4,79.7z"/>
				</g>
			</g>
		</g>
		<g>
			<g>
				<path style="fill:#742E91;" d="M53.8,68.3c0,2.5-2,4.5-4.5,4.5l-10.5,0c-2.5,0-4.5-2-4.5-4.5l0,0c0-2.5,2-4.5,4.5-4.5h10.5
					C51.8,63.8,53.8,65.9,53.8,68.3L53.8,68.3z"/>
				<path style="fill:#742E91;" d="M65.4,84.1c0,2.5-2,4.5-4.5,4.5H50.4c-2.5,0-4.5-2-4.5-4.5l0,0c0-2.5,2-4.5,4.5-4.5h10.5
					C63.4,79.6,65.4,81.6,65.4,84.1L65.4,84.1z"/>
				<path style="fill:#742E91;" d="M76.2,99.9c0,2.5-2,4.5-4.5,4.5H61.2c-2.5,0-4.5-2-4.5-4.5l0,0c0-2.5,2-4.5,4.5-4.5h10.5
					C74.2,95.4,76.2,97.4,76.2,99.9L76.2,99.9z"/>
				<path style="fill:#742E91;" d="M107.8,44.2H42.3c0,0-0.1,0-0.1,0H31.6c-2.5,0-4.5,2-4.5,4.5c0,2.5,2,4.5,4.5,4.5h10.2h0.3h7.5
					l23.1,23.4c6,6.1,15.8,6.2,21.9,0.1l19.3-19c0.2,0.6,0.3,1.3,0.3,2V105c0,3.6-2.9,6.5-6.5,6.5H80.6c-0.1,0-0.1,0-0.2,0H69.8
					c-2.5,0-4.5,2-4.5,4.5c0,2.5,2,4.5,4.5,4.5l2.6,0v0h35.4c8.6,0,15.5-7,15.5-15.5V59.7C123.3,51.2,116.4,44.2,107.8,44.2z
					 M88.4,70.3c-2.6,2.5-6.7,2.5-9.2-0.1L62.3,53.2h43.4L88.4,70.3z"/>
			</g>
		</g>
	</g>
</g>
</svg>
