<?xml version="1.0" encoding="utf-8"?>
<!-- Generator: Adobe Illustrator 16.0.1, SVG Export Plug-In . SVG Version: 6.00 Build 0)  -->
<!DOCTYPE svg PUBLIC "-//W3C//DTD SVG 1.1//EN" "http://www.w3.org/Graphics/SVG/1.1/DTD/svg11.dtd">
<svg version="1.1" xmlns="http://www.w3.org/2000/svg" xmlns:xlink="http://www.w3.org/1999/xlink" x="0px" y="0px" width="591.8px"
	 height="68.8px" viewBox="0 0 591.8 68.8" style="enable-background:new 0 0 591.8 68.8;" xml:space="preserve">
<g id="BACK">
</g>
<g id="GUIDE">
</g>
<g id="LAYOUT">
	<g>
		<g>
			<g>
				<g>
					<path style="fill:#742E91;" d="M181.5,60.5c0-4.8,3.8-8.2,8.3-8.2c4.4,0,8.2,3.4,8.2,8.2c0,4.9-3.8,8.3-8.2,8.3
						C185.3,68.8,181.5,65.4,181.5,60.5z M182.4,1.8h14.8L195,45.6h-10.5L182.4,1.8z"/>
				</g>
			</g>
			<g>
				<g>
					<g>
						<path style="fill:#742E91;" d="M38.7,42.2H15.5v26.6H0v-67h15.5v27.1h23.2V1.8h15.4v67H38.7V42.2z"/>
						<path style="fill:#742E91;" d="M81.2,14.2v15.2h25.4v12.2H81.2v14.7h25.4v12.5H65.7v-67h40.9v12.5H81.2z"/>
						<path style="fill:#742E91;" d="M142.6,68.8h-17.1l12.4-25.2L114.1,1.8h18.1l14.3,26.3l12.3-26.3h17.2L142.6,68.8z"/>
					</g>
				</g>
				<g>
					<g>
						<path style="fill:#D3DE25;" d="M246.3,20.6c-1.3-1.7-3-3-5.1-4c-2.1-1-4.1-1.5-6.1-1.5c-1,0-2,0.1-3.1,0.3c-1,0.2-2,0.5-2.8,1
							c-0.8,0.5-1.5,1.2-2.1,2c-0.6,0.8-0.8,1.8-0.8,3.1c0,1.1,0.2,2,0.7,2.7c0.4,0.7,1.1,1.3,2,1.9c0.9,0.5,1.9,1,3.1,1.5
							s2.5,0.9,4,1.4c2.1,0.7,4.4,1.5,6.7,2.4c2.3,0.9,4.4,2,6.3,3.4c1.9,1.4,3.5,3.2,4.7,5.3c1.2,2.1,1.9,4.7,1.9,7.9
							c0,3.6-0.7,6.7-2,9.4c-1.3,2.6-3.1,4.8-5.4,6.5c-2.3,1.7-4.8,3-7.7,3.8c-2.9,0.8-5.9,1.2-9,1.2c-4.5,0-8.9-0.8-13.1-2.4
							c-4.2-1.6-7.7-3.8-10.5-6.7l10-10.1c1.5,1.9,3.6,3.5,6.1,4.8c2.5,1.3,5,1.9,7.5,1.9c1.1,0,2.2-0.1,3.3-0.4
							c1.1-0.2,2-0.6,2.8-1.2c0.8-0.5,1.4-1.2,1.9-2.1c0.5-0.9,0.7-2,0.7-3.2c0-1.2-0.3-2.2-0.9-3c-0.6-0.8-1.4-1.6-2.5-2.3
							c-1.1-0.7-2.5-1.3-4.1-1.9c-1.6-0.6-3.5-1.2-5.6-1.8c-2-0.7-4-1.4-5.9-2.3c-1.9-0.9-3.6-2-5.2-3.4c-1.5-1.4-2.7-3.1-3.6-5.1
							c-0.9-2-1.4-4.4-1.4-7.2c0-3.5,0.7-6.5,2.1-9c1.4-2.5,3.3-4.5,5.6-6.1c2.3-1.6,4.9-2.8,7.8-3.5c2.9-0.7,5.8-1.1,8.8-1.1
							c3.6,0,7.2,0.7,10.9,2c3.7,1.3,6.9,3.2,9.7,5.8L246.3,20.6z"/>
						<path style="fill:#D3DE25;" d="M262.4,29c2.6-2.5,5.6-4.4,9.1-5.6c3.5-1.2,7-1.9,10.6-1.9c3.7,0,6.9,0.5,9.5,1.4
							c2.6,0.9,4.7,2.3,6.3,4.3c1.6,1.9,2.8,4.4,3.5,7.3c0.7,2.9,1.1,6.4,1.1,10.4v22.3h-13.3v-4.7h-0.3c-1.1,1.8-2.8,3.3-5.1,4.3
							c-2.3,1-4.8,1.5-7.4,1.5c-1.8,0-3.6-0.2-5.5-0.7c-1.9-0.5-3.6-1.2-5.2-2.3c-1.6-1.1-2.9-2.5-3.9-4.3c-1-1.8-1.5-4-1.5-6.6
							c0-3.2,0.9-5.8,2.6-7.7c1.7-2,4-3.5,6.8-4.5c2.8-1.1,5.8-1.8,9.2-2.1c3.4-0.4,6.7-0.5,9.9-0.5v-0.7c0-2.2-0.8-3.8-2.3-4.8
							c-1.5-1-3.4-1.6-5.7-1.6c-2.1,0-4.1,0.4-6,1.3c-1.9,0.9-3.6,2-4.9,3.2L262.4,29z M299.4,4.3c-0.2,1.5-0.5,3-1,4.4
							c-0.5,1.4-1.1,2.7-1.9,3.7c-0.8,1.1-1.8,1.9-3,2.6c-1.2,0.7-2.6,1-4.2,1c-1.2,0-2.5-0.2-3.6-0.5c-1.2-0.4-2.4-0.8-3.6-1.3
							c-1.2-0.7-2.2-1.1-3.1-1.4c-0.9-0.3-1.7-0.4-2.5-0.4c-1.1,0-1.9,0.4-2.4,1.1c-0.6,0.7-1,1.5-1.3,2.5h-6.4c0.2-1.5,0.5-3,1-4.4
							c0.5-1.4,1.1-2.6,1.9-3.7c0.8-1.1,1.8-1.9,3-2.5c1.2-0.6,2.6-0.9,4.2-0.9c1.2,0,2.4,0.2,3.6,0.5c1.2,0.3,2.3,0.8,3.5,1.3
							c1.2,0.6,2.3,1,3.2,1.3c0.9,0.3,1.8,0.4,2.6,0.4c1.1,0,2-0.3,2.5-1c0.5-0.7,0.9-1.6,1.2-2.6H299.4z M289.2,47.9h-1.9
							c-1.6,0-3.2,0.1-4.8,0.2c-1.6,0.1-3.1,0.4-4.4,0.8c-1.3,0.4-2.3,1-3.2,1.8c-0.8,0.8-1.2,1.9-1.2,3.2c0,0.8,0.2,1.5,0.6,2.1
							c0.4,0.6,0.9,1.1,1.5,1.4c0.6,0.4,1.3,0.6,2,0.8c0.8,0.1,1.5,0.2,2.2,0.2c3,0,5.2-0.8,6.8-2.4c1.6-1.6,2.4-3.8,2.4-6.6V47.9z"
							/>
						<path style="fill:#D3DE25;" d="M358.5,44.9c0,3.6-0.7,6.9-2,9.8c-1.3,2.9-3.1,5.4-5.3,7.5c-2.2,2-4.9,3.6-7.8,4.8
							c-3,1.1-6.1,1.7-9.5,1.7c-3.3,0-6.5-0.6-9.5-1.7c-3-1.1-5.6-2.7-7.8-4.8c-2.2-2-4-4.5-5.3-7.5c-1.3-2.9-2-6.2-2-9.8
							c0-3.6,0.6-6.9,2-9.8c1.3-2.9,3.1-5.4,5.3-7.4c2.2-2,4.8-3.6,7.8-4.6c3-1.1,6.1-1.6,9.5-1.6c3.4,0,6.5,0.5,9.5,1.6
							s5.6,2.6,7.8,4.6c2.3,2,4,4.5,5.3,7.4C357.9,38,358.5,41.3,358.5,44.9z M344.5,44.9c0-1.4-0.2-2.8-0.7-4.2
							c-0.5-1.4-1.2-2.6-2-3.6c-0.9-1-2-1.9-3.3-2.5c-1.3-0.7-2.8-1-4.5-1c-1.7,0-3.2,0.3-4.5,1c-1.3,0.7-2.4,1.5-3.2,2.5
							c-0.9,1-1.5,2.2-2,3.6c-0.4,1.4-0.7,2.8-0.7,4.2c0,1.4,0.2,2.8,0.7,4.2c0.4,1.4,1.1,2.6,2,3.7c0.9,1.1,2,2,3.3,2.6
							c1.3,0.7,2.8,1,4.5,1c1.7,0,3.2-0.3,4.5-1c1.3-0.6,2.4-1.5,3.3-2.6c0.9-1.1,1.6-2.3,2-3.7C344.3,47.7,344.5,46.3,344.5,44.9z"
							/>
						<path style="fill:#D3DE25;" d="M416.3,23.7c0,3.7-0.7,6.8-2,9.3c-1.4,2.5-3.2,4.6-5.5,6.1c-2.3,1.5-5,2.7-8,3.4
							c-3,0.7-6.2,1.1-9.4,1.1h-7.6v23.7h-15.2v-63h23.1c3.4,0,6.7,0.3,9.7,1c3,0.7,5.6,1.8,7.8,3.3c2.2,1.5,4,3.5,5.2,6
							C415.7,17,416.3,20,416.3,23.7z M401.1,23.7c0-1.5-0.3-2.7-0.9-3.6s-1.4-1.7-2.4-2.2c-1-0.5-2.2-0.9-3.4-1.1
							c-1.3-0.2-2.6-0.3-4-0.3h-6.7v14.9h6.4c1.4,0,2.8-0.1,4.1-0.4c1.3-0.2,2.5-0.7,3.5-1.2c1-0.6,1.9-1.4,2.4-2.4
							S401.1,25.2,401.1,23.7z"/>
						<path style="fill:#D3DE25;" d="M419.9,29c2.6-2.5,5.6-4.4,9.1-5.6c3.5-1.2,7-1.9,10.6-1.9c3.7,0,6.9,0.5,9.5,1.4
							c2.6,0.9,4.7,2.3,6.3,4.3c1.6,1.9,2.8,4.4,3.5,7.3c0.7,2.9,1.1,6.4,1.1,10.4v22.3h-13.3v-4.7h-0.3c-1.1,1.8-2.8,3.3-5.1,4.3
							c-2.3,1-4.7,1.5-7.4,1.5c-1.8,0-3.6-0.2-5.5-0.7c-1.9-0.5-3.6-1.2-5.2-2.3c-1.6-1.1-2.9-2.5-3.9-4.3c-1-1.8-1.5-4-1.5-6.6
							c0-3.2,0.9-5.8,2.6-7.7c1.7-2,4-3.5,6.8-4.5c2.8-1.1,5.8-1.8,9.2-2.1c3.4-0.4,6.7-0.5,9.9-0.5v-0.7c0-2.2-0.8-3.8-2.3-4.8
							s-3.4-1.6-5.7-1.6c-2.1,0-4.1,0.4-6,1.3c-1.9,0.9-3.6,2-4.9,3.2L419.9,29z M446.7,47.9h-1.9c-1.6,0-3.2,0.1-4.8,0.2
							c-1.6,0.1-3.1,0.4-4.4,0.8c-1.3,0.4-2.3,1-3.2,1.8c-0.8,0.8-1.2,1.9-1.2,3.2c0,0.8,0.2,1.5,0.6,2.1c0.4,0.6,0.9,1.1,1.5,1.4
							c0.6,0.4,1.3,0.6,2,0.8c0.8,0.1,1.5,0.2,2.2,0.2c3,0,5.2-0.8,6.8-2.4c1.6-1.6,2.4-3.8,2.4-6.6V47.9z"/>
						<path style="fill:#D3DE25;" d="M496.5,67.2v-6.1h-0.2c-0.5,1-1.2,2-2.1,2.8c-0.9,0.9-1.9,1.7-3,2.3c-1.2,0.7-2.4,1.2-3.8,1.6
							c-1.4,0.4-2.9,0.6-4.4,0.6c-3,0-5.5-0.5-7.5-1.6c-2-1.1-3.7-2.4-5-4.1c-1.3-1.7-2.2-3.6-2.8-5.8c-0.6-2.2-0.8-4.4-0.8-6.6
							V22.9h14.7v24c0,1.2,0.1,2.4,0.3,3.6c0.2,1.1,0.5,2.1,1,3c0.5,0.9,1.2,1.6,2,2.1c0.8,0.5,1.9,0.8,3.3,0.8
							c2.5,0,4.5-0.9,5.8-2.8c1.3-1.9,2-4.1,2-6.7V22.9h14.6v44.3H496.5z"/>
						<path style="fill:#D3DE25;" d="M518.5,67.2V0h14.9v67.2H518.5z"/>
						<path style="fill:#D3DE25;" d="M591.8,44.9c0,3.6-0.7,6.9-2,9.8c-1.3,2.9-3.1,5.4-5.3,7.5c-2.3,2-4.9,3.6-7.8,4.8
							c-3,1.1-6.1,1.7-9.5,1.7c-3.3,0-6.5-0.6-9.5-1.7c-3-1.1-5.6-2.7-7.8-4.8c-2.2-2-4-4.5-5.3-7.5c-1.3-2.9-2-6.2-2-9.8
							c0-3.6,0.7-6.9,2-9.8c1.3-2.9,3.1-5.4,5.3-7.4c2.2-2,4.8-3.6,7.8-4.6c3-1.1,6.1-1.6,9.5-1.6c3.4,0,6.6,0.5,9.5,1.6
							c3,1.1,5.6,2.6,7.8,4.6c2.3,2,4,4.5,5.3,7.4C591.1,38,591.8,41.3,591.8,44.9z M577.7,44.9c0-1.4-0.2-2.8-0.7-4.2
							c-0.5-1.4-1.2-2.6-2-3.6c-0.9-1-2-1.9-3.3-2.5c-1.3-0.7-2.8-1-4.5-1c-1.7,0-3.2,0.3-4.5,1c-1.3,0.7-2.4,1.5-3.2,2.5
							c-0.9,1-1.5,2.2-2,3.6c-0.4,1.4-0.7,2.8-0.7,4.2c0,1.4,0.2,2.8,0.7,4.2c0.4,1.4,1.1,2.6,2,3.7c0.9,1.1,2,2,3.3,2.6
							c1.3,0.7,2.8,1,4.5,1c1.7,0,3.2-0.3,4.5-1c1.3-0.6,2.4-1.5,3.3-2.6c0.9-1.1,1.6-2.3,2-3.7C577.5,47.7,577.7,46.3,577.7,44.9z"
							/>
					</g>
				</g>
			</g>
		</g>
	</g>
</g>
</svg>
