<?xml version="1.0" encoding="utf-8"?>
<!-- Generator: Adobe Illustrator 16.0.1, SVG Export Plug-In . SVG Version: 6.00 Build 0)  -->
<!DOCTYPE svg PUBLIC "-//W3C//DTD SVG 1.1//EN" "http://www.w3.org/Graphics/SVG/1.1/DTD/svg11.dtd">
<svg version="1.1" xmlns="http://www.w3.org/2000/svg" xmlns:xlink="http://www.w3.org/1999/xlink" x="0px" y="0px" width="128.6px"
	 height="128.6px" viewBox="0 0 128.6 128.6" style="enable-background:new 0 0 128.6 128.6;" xml:space="preserve">
<g id="BACK">
</g>
<g id="GUIDE">
</g>
<g id="LAYOUT">
	<g>
		<g>
			<g>
				<g>
					<g>
						<path style="fill:#2FACE3;" d="M128.6,64.3c0,35.5-28.8,64.3-64.3,64.3C28.8,128.6,0,99.8,0,64.3C0,28.8,28.8,0,64.3,0
							C99.8,0,128.6,28.8,128.6,64.3z"/>
					</g>
					<g>
						<g>
							<path style="fill:#2897C7;" d="M128.6,64.3C128.6,28.8,99.8,0,64.3,0C45.5,0,28.7,8,16.9,20.8C28.4,10.3,43.6,3.9,60.4,3.9
								c35.5,0,64.3,28.8,64.3,64.3c0,16.8-6.4,32-16.9,43.5C120.5,99.9,128.6,83,128.6,64.3z"/>
						</g>
					</g>
				</g>
			</g>
		</g>
		<circle style="fill:none;stroke:#F3712E;stroke-width:5;stroke-miterlimit:10;" cx="64.3" cy="64.3" r="37.8"/>
		<g>
			<path style="fill:#D3DE25;" d="M84.7,62.6c-6.1,6-9.9,9.6-13.8,17.6c-2.2,4.5-3.8,7.5-9.3,7.5c-3.7,0-6.5-3.3-6.5-6.9
				c0-17.7,21.7-24.7,21.7-36.4c0-7.5-8.3-8.7-14.1-8.7c-7.3,0-10,1.2-16.7,3.9c-1.2,0.5-2.6,0.8-3.9,0.8c-4.1,0-7.5-3-7.5-7.2
				C34.6,22.9,54.7,20,62.3,20C76.9,20,94,26.3,94,43.5C94,51.5,90.3,57.2,84.7,62.6z M62.7,112.8c-5,0-9.2-4.2-9.2-9.3
				c0-5.1,4.2-9.2,9.2-9.2c5.1,0,9.3,4.1,9.3,9.2C72,108.6,67.8,112.8,62.7,112.8z"/>
		</g>
	</g>
</g>
</svg>
