<?xml version="1.0" encoding="utf-8"?>
<!-- Generator: Adobe Illustrator 16.0.1, SVG Export Plug-In . SVG Version: 6.00 Build 0)  -->
<!DOCTYPE svg PUBLIC "-//W3C//DTD SVG 1.1//EN" "http://www.w3.org/Graphics/SVG/1.1/DTD/svg11.dtd">
<svg version="1.1" xmlns="http://www.w3.org/2000/svg" xmlns:xlink="http://www.w3.org/1999/xlink" x="0px" y="0px" width="132.4px"
	 height="129px" viewBox="0 0 132.4 129" style="enable-background:new 0 0 132.4 129;" xml:space="preserve">
<g id="BACK">
</g>
<g id="GUIDE">
</g>
<g id="LAYOUT">
	<g>
		<path style="fill:#662B7F;" d="M64.6,3.2C28.9,3.2,0,31.4,0,66.1C0,100.9,28.9,129,64.6,129s64.6-28.2,64.6-62.9
			C129.1,31.4,100.2,3.2,64.6,3.2z M64.6,104.4c-21.7,0-39.3-17.1-39.3-38.3c0-21.1,17.6-38.3,39.3-38.3s39.3,17.1,39.3,38.3
			C103.9,87.3,86.3,104.4,64.6,104.4z"/>
		<path style="fill:#742E91;" d="M67.9,0C32.2,0,3.3,28.2,3.3,62.9c0,34.7,28.9,62.9,64.6,62.9c35.7,0,64.6-28.2,64.6-62.9
			C132.4,28.2,103.5,0,67.9,0z M67.9,101.2c-21.7,0-39.3-17.1-39.3-38.3c0-21.1,17.6-38.3,39.3-38.3c21.7,0,39.3,17.1,39.3,38.3
			C107.2,84.1,89.6,101.2,67.9,101.2z"/>
	</g>
</g>
</svg>
