<?xml version="1.0" encoding="utf-8"?>
<!-- Generator: Adobe Illustrator 16.0.1, SVG Export Plug-In . SVG Version: 6.00 Build 0)  -->
<!DOCTYPE svg PUBLIC "-//W3C//DTD SVG 1.1//EN" "http://www.w3.org/Graphics/SVG/1.1/DTD/svg11.dtd">
<svg version="1.1" xmlns="http://www.w3.org/2000/svg" xmlns:xlink="http://www.w3.org/1999/xlink" x="0px" y="0px" width="74.6px"
	 height="74.6px" viewBox="0 0 74.6 74.6" style="enable-background:new 0 0 74.6 74.6;" xml:space="preserve">
<g id="BACK">
</g>
<g id="GUIDE">
</g>
<g id="LAYOUT">
	<g>
		<g>
			<g>
				<g>
					<path style="fill:#2FACE3;" d="M74.6,37.3c0,20.6-16.7,37.3-37.3,37.3C16.7,74.6,0,57.9,0,37.3C0,16.7,16.7,0,37.3,0
						C57.9,0,74.6,16.7,74.6,37.3z"/>
				</g>
				<g>
					<g>
						<path style="fill:#2897C7;" d="M74.6,37.3C74.6,16.7,57.9,0,37.3,0C26.4,0,16.6,4.7,9.8,12.1C16.5,6,25.3,2.2,35,2.2
							c20.6,0,37.3,16.7,37.3,37.3c0,9.7-3.7,18.6-9.8,25.2C69.9,57.9,74.6,48.1,74.6,37.3z"/>
					</g>
				</g>
			</g>
			<g>
				<path style="fill:#D3DE25;" d="M43.1,28.4c0-2.9-2.4-5.3-5.3-5.3c-2.9,0-5.3,2.4-5.3,5.3c0,2.9,2.5,5.3,5.4,5.3
					c0.4,0,0.8,0,1.3-0.1v0H39C41.3,33,43.1,30.9,43.1,28.4z"/>
				<path style="fill:#ED218E;" d="M38.2,34.9v2.8l0.7,5.7h0.8l-0.6-5.7v-2.9C38.7,34.9,38.2,34.9,38.2,34.9z"/>
				<path style="fill:#ED218E;" d="M35.6,43.4h0.8l0.8-5.7v-2.8c-0.3,0-0.5-0.1-0.9-0.1v2.9L35.6,43.4z"/>
				<circle style="fill:#D3DE25;" cx="24.8" cy="33" r="2.2"/>
				<path style="fill:#D3DE25;" d="M53.3,24.4c0-0.7-0.6-1.3-1.3-1.3h-3.6c-0.7,0-1.2,0.6-1.2,1.3V28c0,0.7,0.6,1.3,1.2,1.3h3.6
					c0.7,0,1.3-0.6,1.3-1.3V24.4z"/>
				<path style="fill:#742E91;" d="M35.4,37.7v-3.2c-2.4-0.9-4.3-3.3-4.3-6.2c0-3.6,3-6.5,6.6-6.5c3.6,0,6.5,2.9,6.5,6.5
					c0,2.9-1.7,5.4-4.6,6.2v3.1l2.6,5.7h17.5l-4.1-5.7V21.9c0-0.9-0.8-1.6-1.7-1.6H42.6c-0.1,0-0.4,0.5-0.7,0.5h-8.3
					c-0.3,0-0.6-0.5-0.7-0.5H20.6c-0.9,0-1.7,0.6-1.7,1.6v15.8l-4.1,5.7h18.3L35.4,37.7z M54.3,28.1c0,1.2-0.9,2.1-2.1,2.1h-3.9
					c-1.2,0-2.1-0.9-2.1-2.1v-3.9c0-1.1,0.9-2.1,2.1-2.1h3.9c1.1,0,2.1,0.9,2.1,2.1V28.1z M24.8,36c-1.7,0-3-1.4-3-3
					c0-1.7,1.4-3,3-3c1.7,0,3,1.4,3,3C27.8,34.7,26.5,36,24.8,36z"/>
				<path style="fill:#D3DE25;" d="M56.7,51.4h-0.2h-39c-0.2,0-0.4,0.2-0.4,0.5c0,0.2,0.2,0.5,0.4,0.5h39.2c0.2,0,0.4-0.2,0.4-0.5
					C57.1,51.7,56.9,51.4,56.7,51.4z"/>
				<path style="fill:#742E91;" d="M42.5,46.3h-2.8v-1.9h-0.5v1.9h-2.8v-1.9h-0.9v1.9H33v-1.9H14.6v9.2c0,0.5,0.5,0.7,1,0.7H59
					c0.5,0,1-0.3,1-0.7v-9.2H42.5V46.3z M57.5,51.9c0,0.5-0.4,0.9-0.8,0.9H17.5c-0.5,0-0.8-0.5-0.8-0.9c0-0.5,0.4-0.9,0.8-0.9h39.2
					C57.1,51,57.5,51.5,57.5,51.9z"/>
			</g>
		</g>
	</g>
</g>
</svg>
