<?xml version="1.0" encoding="utf-8"?>
<!-- Generator: Adobe Illustrator 16.0.1, SVG Export Plug-In . SVG Version: 6.00 Build 0)  -->
<!DOCTYPE svg PUBLIC "-//W3C//DTD SVG 1.1//EN" "http://www.w3.org/Graphics/SVG/1.1/DTD/svg11.dtd">
<svg version="1.1" xmlns="http://www.w3.org/2000/svg" xmlns:xlink="http://www.w3.org/1999/xlink" x="0px" y="0px" width="74.6px"
	 height="74.6px" viewBox="0 0 74.6 74.6" style="enable-background:new 0 0 74.6 74.6;" xml:space="preserve">
<g id="BACK">
</g>
<g id="GUIDE">
</g>
<g id="LAYOUT">
	<g>
		<g>
			<g>
				<g>
					<path style="fill:#2FACE3;" d="M74.6,37.3c0,20.6-16.7,37.3-37.3,37.3C16.7,74.6,0,57.9,0,37.3C0,16.7,16.7,0,37.3,0
						C57.9,0,74.6,16.7,74.6,37.3z"/>
				</g>
				<g>
					<g>
						<path style="fill:#2897C7;" d="M74.6,37.3C74.6,16.7,57.9,0,37.3,0C26.4,0,16.6,4.7,9.8,12.1C16.5,6,25.3,2.2,35,2.2
							c20.6,0,37.3,16.7,37.3,37.3c0,9.7-3.7,18.6-9.8,25.2C69.9,57.9,74.6,48.1,74.6,37.3z"/>
					</g>
				</g>
			</g>
			<g>
				<path style="fill:#D8E028;" d="M15.1,27.7v30.2c0,2.3,1.8,4.1,4,4.1h36.3c2.2,0,4-1.8,4-4.1V27.7H15.1z M26.2,59h-8.1v-8.1h8.1
					V59z M26.2,48.9h-8.1v-8.1h8.1V48.9z M26.2,38.8h-8.1v-8.1h8.1V38.8z M36.3,59h-8.1v-8.1h8.1V59z M36.3,48.9h-8.1v-8.1h8.1V48.9
					z M36.3,38.8h-8.1v-8.1h8.1V38.8z M46.4,59h-8.1v-8.1h8.1V59z M46.4,48.9h-8.1v-8.1h8.1V48.9z M46.4,38.8h-8.1v-8.1h8.1V38.8z
					 M56.5,59h-8.1v-8.1h8.1V59z M56.5,48.9h-8.1v-8.1h8.1V48.9z M56.5,38.8h-8.1v-8.1h8.1V38.8z"/>
				<path style="fill:#742E91;" d="M55.4,17.6h-6.6V13c0-0.8-0.7-1.5-1.5-1.5c-0.8,0-1.5,0.7-1.5,1.5v4.5H28.7V13
					c0-0.8-0.7-1.5-1.5-1.5c-0.8,0-1.5,0.7-1.5,1.5v4.5h-6.6c-2.2,0-4,1.8-4,4.1v3.5l0,0v0.5h44.4v-0.5l0,0v-3.5
					C59.5,19.4,57.7,17.6,55.4,17.6z M27.2,24.6c-1.7,0-3-1.4-3-3c0-1.1,0.6-2.1,1.5-2.6v2.6c0,0.8,0.7,1.5,1.5,1.5
					c0.8,0,1.5-0.7,1.5-1.5V19c0.9,0.5,1.5,1.5,1.5,2.6C30.2,23.3,28.9,24.6,27.2,24.6z M47.4,24.6c-1.7,0-3-1.4-3-3
					c0-1.1,0.6-2.1,1.5-2.6v2.6c0,0.8,0.7,1.5,1.5,1.5c0.8,0,1.5-0.7,1.5-1.5V19c0.9,0.5,1.5,1.5,1.5,2.6
					C50.4,23.3,49,24.6,47.4,24.6z"/>
			</g>
		</g>
	</g>
</g>
</svg>
